<?xml version="1.0" encoding="UTF-8" standalone="no"?>
<!-- Created with Inkscape (http://www.inkscape.org/) -->

<svg
   width="1600"
   height="900"
   viewBox="0 0 423.33332 238.12501"
   version="1.1"
   id="svg5"
   inkscape:version="1.1.2 (b8e25be833, 2022-02-05)"
   sodipodi:docname="thumbnail.svg"
   inkscape:export-filename="D:\slycefolder\SteamLibrary\steamapps\common\Rain World\RainWorld_Data\StreamingAssets\mods\uql-extra\thumbnail.png"
   inkscape:export-xdpi="96"
   inkscape:export-ydpi="96"
   xmlns:inkscape="http://www.inkscape.org/namespaces/inkscape"
   xmlns:sodipodi="http://sodipodi.sourceforge.net/DTD/sodipodi-0.dtd"
   xmlns="http://www.w3.org/2000/svg"
   xmlns:svg="http://www.w3.org/2000/svg">
  <sodipodi:namedview
     id="namedview7"
     pagecolor="#ffffff"
     bordercolor="#666666"
     borderopacity="1.0"
     inkscape:pageshadow="2"
     inkscape:pageopacity="0.0"
     inkscape:pagecheckerboard="0"
     inkscape:document-units="mm"
     showgrid="false"
     units="px"
     inkscape:zoom="0.16592137"
     inkscape:cx="-39.175184"
     inkscape:cy="1048.6895"
     inkscape:window-width="1920"
     inkscape:window-height="1017"
     inkscape:window-x="-8"
     inkscape:window-y="32"
     inkscape:window-maximized="1"
     inkscape:current-layer="layer1" />
  <defs
     id="defs2">
    <filter
       inkscape:label="Ripple"
       inkscape:menu="Distort"
       inkscape:menu-tooltip="Horizontal rippling of edges"
       style="color-interpolation-filters:sRGB;"
       id="filter12425"
       x="0"
       y="0"
       width="1"
       height="1">
      <feTurbulence
         numOctaves="8"
         baseFrequency="0.12090680100755667 0.017632241813602016"
         id="feTurbulence12419"
         result="result94"
         seed="99" />
      <feColorMatrix
         values="2.0000000 0.0000000 0.0000000 0.0000000 0.0000000 0.0000000 0.0000000 0.0000000 0.0000000 0.0000000 0.0000000 0.0000000 0.0000000 0.0000000 0.0000000 0.0000000 0.0000000 0.0000000 0.50000000 0.50000000 "
         result="result91"
         id="feColorMatrix12421" />
      <feDisplacementMap
         yChannelSelector="A"
         xChannelSelector="R"
         scale="13.46578366445916"
         in="SourceGraphic"
         id="feDisplacementMap12423"
         result="result92"
         in2="result91" />
    </filter>
    <filter
       inkscape:label="Ripple"
       inkscape:menu="Distort"
       inkscape:menu-tooltip="Horizontal rippling of edges"
       style="color-interpolation-filters:sRGB"
       id="filter12425-9"
       x="0"
       y="0"
       width="1"
       height="1">
      <feTurbulence
         numOctaves="7"
         baseFrequency="0.12090680100755667 0.017632241813602016"
         id="feTurbulence12419-5"
         result="result94"
         seed="75" />
      <feColorMatrix
         values="2.0000000 0.0000000 0.0000000 0.0000000 0.0000000 0.0000000 0.0000000 0.0000000 0.0000000 0.0000000 0.0000000 0.0000000 0.0000000 0.0000000 0.0000000 0.0000000 0.0000000 0.0000000 0.50000000 0.50000000 "
         result="result91"
         id="feColorMatrix12421-9" />
      <feDisplacementMap
         yChannelSelector="A"
         xChannelSelector="R"
         scale="13.465784"
         in="SourceGraphic"
         id="feDisplacementMap12423-2"
         result="result92"
         in2="result91" />
    </filter>
  </defs>
  <g
     inkscape:label="Layer 1"
     inkscape:groupmode="layer"
     id="layer1">
    <rect
       style="fill:#000000;fill-opacity:1;stroke:none;stroke-width:3.95485;paint-order:markers fill stroke"
       id="rect846"
       width="423.33334"
       height="238.125"
       x="0"
       y="0" />
    <g
       aria-label="⚙️"
       transform="matrix(1.4875971,0.36561969,-0.36545244,1.4869177,-111.00944,-175.86675)"
       id="text2586"
       style="font-size:108.315px;line-height:1.65;font-family:'Times New Roman';-inkscape-font-specification:'Times New Roman, ';text-align:end;text-anchor:end;fill:#ffffff;stroke-width:0.564122;filter:url(#filter12425-9)">
      <path
         d="m 300.55764,138.64436 v 1.26931 l 8.40922,8.46211 -6.29369,25.12189 h -14.17403 l -3.17329,3.1204 v 14.22692 l -25.12189,6.2937 -8.40922,-8.46211 h -1.32221 l -8.40922,8.46211 -25.12189,-6.2937 v -14.22692 l -3.17329,-3.1204 H 199.5941 l -6.2937,-25.12189 8.40923,-8.46211 v -1.26931 l -8.40923,-8.40923 6.2937,-25.17477 h 14.17403 l 3.17329,-3.12041 V 87.713033 l 25.12189,-6.293694 8.40922,8.46211 h 1.32221 l 8.40922,-8.46211 25.12189,6.293694 v 14.226917 l 3.17329,3.12041 h 14.17403 l 6.29369,25.17477 z m -3.80795,27.23741 3.80795,-15.17891 -7.6159,-7.6159 v -7.6159 l 7.6159,-7.61589 -3.80795,-15.17891 h -11.42384 l -7.56301,-7.6159 V 93.689398 l -15.2318,-3.807949 -7.6159,7.56301 h -7.56301 l -7.6159,-7.56301 -15.2318,3.807949 v 11.370962 l -7.56301,7.6159 h -11.42384 l -3.80795,15.17891 7.61589,7.61589 v 7.6159 l -7.61589,7.6159 3.80795,15.17891 h 11.42384 l 7.56301,7.6159 v 11.42385 l 15.2318,3.75506 7.6159,-7.56301 h 7.56301 l 7.6159,7.56301 15.2318,-3.75506 v -11.42385 l 7.56301,-7.6159 z m -45.58961,-57.01346 q 6.2408,0 11.79406,2.43285 5.55326,2.37997 9.67854,6.50525 4.12528,4.12528 6.50525,9.67854 2.43286,5.55326 2.43286,11.79406 0,6.2937 -2.43286,11.84696 -2.37997,5.50037 -6.50525,9.62565 -4.12528,4.12527 -9.67854,6.55813 -5.55326,2.37997 -11.79406,2.37997 -6.2937,0 -11.84695,-2.37997 -5.55326,-2.37997 -9.67854,-6.50525 -4.12528,-4.12527 -6.50525,-9.67853 -2.37997,-5.55326 -2.37997,-11.84696 0,-6.29369 2.37997,-11.84695 2.37997,-5.55326 6.50525,-9.67854 4.12528,-4.12528 9.67854,-6.50524 5.55325,-2.37997 11.84695,-2.37997 z m 0,57.01346 q 5.50037,0 10.31319,-2.06264 4.86572,-2.11553 8.46211,-5.71192 3.64929,-3.64929 5.71193,-8.46211 2.11553,-4.86572 2.11553,-10.36609 0,-5.50037 -2.11553,-10.31319 -2.06264,-4.86572 -5.71193,-8.46211 -3.59639,-3.64929 -8.46211,-5.71193 -4.81282,-2.11552 -10.31319,-2.11552 -5.50037,0 -10.36609,2.11552 -4.81282,2.06264 -8.4621,5.71193 -3.5964,3.59639 -5.71193,8.46211 -2.11553,4.81282 -2.11553,10.31319 0,5.50037 2.06264,10.36609 2.11553,4.86571 5.71193,8.46211 3.64928,3.59639 8.51499,5.71192 4.86572,2.06264 10.36609,2.06264 z m 0,-38.0266 q 2.37997,0 4.44261,0.89909 2.06264,0.8991 3.59639,2.48575 1.53376,1.53376 2.43286,3.5964 0.8991,2.06264 0.8991,4.4426 0,2.37997 -0.8991,4.44261 -0.8991,2.06264 -2.43286,3.64929 -1.53375,1.53375 -3.59639,2.43285 -2.06264,0.8991 -4.44261,0.8991 -2.37997,0 -4.44261,-0.8991 -2.06264,-0.8991 -3.64928,-2.43285 -1.53376,-1.58665 -2.43286,-3.64929 -0.8991,-2.06264 -0.8991,-4.44261 0,-2.37996 0.8991,-4.4426 0.8991,-2.06264 2.43286,-3.5964 1.58664,-1.58665 3.64928,-2.48575 2.06264,-0.89909 4.44261,-0.89909 z"
         id="path11932" />
    </g>
    <g
       aria-label="⚙️"
       transform="matrix(1.4875971,0.36561969,-0.36545244,1.4869177,-111.00944,-175.86675)"
       id="text2586-2"
       style="font-size:108.315px;line-height:1.65;font-family:'Times New Roman';-inkscape-font-specification:'Times New Roman, ';text-align:end;text-anchor:end;fill:#ffffff;fill-opacity:0.35408556;stroke-width:0.564122;filter:url(#filter12425)">
      <path
         d="m 300.55764,138.64436 v 1.26931 l 8.40922,8.46211 -6.29369,25.12189 h -14.17403 l -3.17329,3.1204 v 14.22692 l -25.12189,6.2937 -8.40922,-8.46211 h -1.32221 l -8.40922,8.46211 -25.12189,-6.2937 v -14.22692 l -3.17329,-3.1204 H 199.5941 l -6.2937,-25.12189 8.40923,-8.46211 v -1.26931 l -8.40923,-8.40923 6.2937,-25.17477 h 14.17403 l 3.17329,-3.12041 V 87.713033 l 25.12189,-6.293694 8.40922,8.46211 h 1.32221 l 8.40922,-8.46211 25.12189,6.293694 v 14.226917 l 3.17329,3.12041 h 14.17403 l 6.29369,25.17477 z m -3.80795,27.23741 3.80795,-15.17891 -7.6159,-7.6159 v -7.6159 l 7.6159,-7.61589 -3.80795,-15.17891 h -11.42384 l -7.56301,-7.6159 V 93.689398 l -15.2318,-3.807949 -7.6159,7.56301 h -7.56301 l -7.6159,-7.56301 -15.2318,3.807949 v 11.370962 l -7.56301,7.6159 h -11.42384 l -3.80795,15.17891 7.61589,7.61589 v 7.6159 l -7.61589,7.6159 3.80795,15.17891 h 11.42384 l 7.56301,7.6159 v 11.42385 l 15.2318,3.75506 7.6159,-7.56301 h 7.56301 l 7.6159,7.56301 15.2318,-3.75506 v -11.42385 l 7.56301,-7.6159 z m -45.58961,-57.01346 q 6.2408,0 11.79406,2.43285 5.55326,2.37997 9.67854,6.50525 4.12528,4.12528 6.50525,9.67854 2.43286,5.55326 2.43286,11.79406 0,6.2937 -2.43286,11.84696 -2.37997,5.50037 -6.50525,9.62565 -4.12528,4.12527 -9.67854,6.55813 -5.55326,2.37997 -11.79406,2.37997 -6.2937,0 -11.84695,-2.37997 -5.55326,-2.37997 -9.67854,-6.50525 -4.12528,-4.12527 -6.50525,-9.67853 -2.37997,-5.55326 -2.37997,-11.84696 0,-6.29369 2.37997,-11.84695 2.37997,-5.55326 6.50525,-9.67854 4.12528,-4.12528 9.67854,-6.50524 5.55325,-2.37997 11.84695,-2.37997 z m 0,57.01346 q 5.50037,0 10.31319,-2.06264 4.86572,-2.11553 8.46211,-5.71192 3.64929,-3.64929 5.71193,-8.46211 2.11553,-4.86572 2.11553,-10.36609 0,-5.50037 -2.11553,-10.31319 -2.06264,-4.86572 -5.71193,-8.46211 -3.59639,-3.64929 -8.46211,-5.71193 -4.81282,-2.11552 -10.31319,-2.11552 -5.50037,0 -10.36609,2.11552 -4.81282,2.06264 -8.4621,5.71193 -3.5964,3.59639 -5.71193,8.46211 -2.11553,4.81282 -2.11553,10.31319 0,5.50037 2.06264,10.36609 2.11553,4.86571 5.71193,8.46211 3.64928,3.59639 8.51499,5.71192 4.86572,2.06264 10.36609,2.06264 z m 0,-38.0266 q 2.37997,0 4.44261,0.89909 2.06264,0.8991 3.59639,2.48575 1.53376,1.53376 2.43286,3.5964 0.8991,2.06264 0.8991,4.4426 0,2.37997 -0.8991,4.44261 -0.8991,2.06264 -2.43286,3.64929 -1.53375,1.53375 -3.59639,2.43285 -2.06264,0.8991 -4.44261,0.8991 -2.37997,0 -4.44261,-0.8991 -2.06264,-0.8991 -3.64928,-2.43285 -1.53376,-1.58665 -2.43286,-3.64929 -0.8991,-2.06264 -0.8991,-4.44261 0,-2.37996 0.8991,-4.4426 0.8991,-2.06264 2.43286,-3.5964 1.58664,-1.58665 3.64928,-2.48575 2.06264,-0.89909 4.44261,-0.89909 z"
         id="path11932-0"
         style="fill:#ffffff;fill-opacity:0.35408556" />
    </g>
  </g>
</svg>
